<svg xmlns="http://www.w3.org/2000/svg" width="960" height="480" viewBox="0 0 960 480" role="img" aria-labelledby="title desc"><title id="title">Allocated memory</title><desc id="desc">Median heap bytes per validation; lower is better. CGO is blue and no-CGO is amber. Values are in B/op.</desc><rect width="960" height="480" rx="16" fill="#0d1117"/><text x="40" y="42" fill="#f0f6fc" font-family="system-ui,sans-serif" font-size="24" font-weight="700">Allocated memory</text><text x="40" y="68" fill="#8b949e" font-family="system-ui,sans-serif" font-size="13">2026-09-14 · Apple M4 Pro · go1.26.0 darwin/arm64 · B/op</text><line x1="92" y1="390" x2="928" y2="390" stroke="#30363d"/><rect x="730" y="28" width="12" height="12" rx="2" fill="#58a6ff"/><text x="748" y="39" fill="#c9d1d9" font-family="system-ui,sans-serif" font-size="13">CGO</text><rect x="805" y="28" width="12" height="12" rx="2" fill="#d29922"/><text x="823" y="39" fill="#c9d1d9" font-family="system-ui,sans-serif" font-size="13">no-CGO</text><rect x="135.0" y="382.8" width="58.5" height="7.2" rx="4" fill="#58a6ff"/><text x="164.2" y="374.8" text-anchor="middle" fill="#f0f6fc" font-family="system-ui,sans-serif" font-size="12">5544</text><rect x="199.5" y="276.7" width="58.5" height="113.3" rx="4" fill="#d29922"/><text x="228.8" y="268.7" text-anchor="middle" fill="#f0f6fc" font-family="system-ui,sans-serif" font-size="12">87568</text><text x="196.5" y="420" text-anchor="middle" fill="#c9d1d9" font-family="system-ui,sans-serif" font-size="13">Simple</text><rect x="344.0" y="336.4" width="58.5" height="53.6" rx="4" fill="#58a6ff"/><text x="373.2" y="328.4" text-anchor="middle" fill="#f0f6fc" font-family="system-ui,sans-serif" font-size="12">41441</text><rect x="408.5" y="230.2" width="58.5" height="159.8" rx="4" fill="#d29922"/><text x="437.8" y="222.2" text-anchor="middle" fill="#f0f6fc" font-family="system-ui,sans-serif" font-size="12">123472</text><text x="405.5" y="420" text-anchor="middle" fill="#c9d1d9" font-family="system-ui,sans-serif" font-size="13">Medium</text><rect x="553.0" y="357.6" width="58.5" height="32.4" rx="4" fill="#58a6ff"/><text x="582.2" y="349.6" text-anchor="middle" fill="#f0f6fc" font-family="system-ui,sans-serif" font-size="12">25032</text><rect x="617.5" y="251.5" width="58.5" height="138.5" rx="4" fill="#d29922"/><text x="646.8" y="243.5" text-anchor="middle" fill="#f0f6fc" font-family="system-ui,sans-serif" font-size="12">107048</text><text x="614.5" y="420" text-anchor="middle" fill="#c9d1d9" font-family="system-ui,sans-serif" font-size="13">Multi-statement</text><rect x="762.0" y="352.4" width="58.5" height="37.6" rx="4" fill="#58a6ff"/><text x="791.2" y="344.4" text-anchor="middle" fill="#f0f6fc" font-family="system-ui,sans-serif" font-size="12">29048</text><rect x="826.5" y="119.1" width="58.5" height="270.9" rx="4" fill="#d29922"/><text x="855.8" y="111.1" text-anchor="middle" fill="#f0f6fc" font-family="system-ui,sans-serif" font-size="12">209368</text><text x="823.5" y="420" text-anchor="middle" fill="#c9d1d9" font-family="system-ui,sans-serif" font-size="13">Nested CTE</text></svg>